PathFileType	4	(X/Y/Z)	C:/Users/beibeiliu/ov580/test_trc\sequence.7_training_dense_right.trc
DataRate	CameraRate	NumFrames	NumMarkers	Units	OrigDataRate	OrigDataStartFrame	OrigNumFrames
120	120	22	19	mm	120	78	310
Frame#	Time	ThumbCMC			ThumbMCP			ThumbIP			ThumbTip			IndexMCP			IndexPIP			IndexTip			MiddleMCP			MiddlePIP			MiddleTip			RingMCP			RingPIP			RingTip			PinkyMCP			PinkyPIP			PinkyTip			BackHand1			BackHand2			BackHand3	
		X0	Y0	Z0	X1	Y1	Z1	X2	Y2	Z2	X3	Y3	Z3	X4	Y4	Z4	X5	Y5	Z5	X6	Y6	Z6	X7	Y7	Z7	X8	Y8	Z8	X9	Y9	Z9	X10	Y10	Z10	X11	Y11	Z11	X12	Y12	Z12	X13	Y13	Z13	X14	Y14	Z14	X15	Y15	Z15	X16	Y16	Z16	X17	Y17	Z17	X18	Y18	Z18	
77	0.641667	151.743	-22.1266	36.9407	136.574	-28.8965	13.791	127.634	-30.9993	-3.63976	112.721	-31.5144	-23.9587	156.414	-6.20066	-33.6394	153.156	-8.17599	-54.6216	151.79	-13.2805	-78.9967	182.597	-8.60908	-36.2816	185.582	-10.2064	-63.4377	183.091	-12.9007	-90.2087	200.223	-14.8495	-32.844	207.436	-16.7062	-53.4308	208.354	-18.5081	-77.8623	221.889	-25.5038	-18.4408	228.916	-24.8951	-37.3568	235.119	-19.7656	-48.1298	200.752	-11.3405	10.1493	206.162	-9.33605	39.4123	179.676	-3.09227	26.8806	
78	0.65	155.629	-21.7619	34.3941	139.053	-29.9419	16.2145	124.933	-31.5764	-5.34263	114.709	-32.7881	-23.813	159.781	-7.17443	-33.5785	154.728	-8.85216	-54.3819	152.526	-12.831	-76.3834	180.857	-8.07314	-37.398	181.859	-10.4822	-64.6667	185.454	-15.0114	-89.8632	202.062	-16.8878	-31.5319	207.333	-18.6619	-52.4888	208.45	-19.4805	-73.9077	219.141	-25.3922	-16.6765	226.934	-25.5721	-33.7046	232.415	-21.4617	-51.5347	203.336	-9.38232	13.0657	204.638	-9.93603	37.7436	180.255	-3.02439	26.6279	
79	0.658333	151.221	-21.6292	34.1172	137.603	-30.7901	18.1004	126.646	-32.5268	-4.33848	116.242	-35.1662	-19.9288	159.145	-9.09206	-31.2029	152.685	-10.0342	-55.8393	150.216	-14.5334	-78.747	184.621	-9.60839	-40.3763	183.233	-11.2011	-59.9069	182.336	-14.2614	-88.274	201.267	-15.8799	-33.9372	207.667	-18.3363	-53.7145	207.057	-19.2645	-77.7484	219.63	-25.6989	-20.9135	226.448	-27.0109	-31.9733	234.214	-21.5691	-49.3343	199.285	-11.5962	10.6917	202.864	-11.0609	39.4976	175.866	-4.81996	25.4022	
80	0.666667	153.396	-23.2084	35.6122	136.981	-30.6477	16.1585	123.171	-32.0803	-5.11377	114.032	-34.9014	-21.9918	160.167	-9.38603	-33.4308	156.884	-11.3062	-52.335	149.603	-14.1298	-78.6385	184.316	-10.7421	-38.3521	181.445	-11.9918	-64.0322	185.141	-16.1184	-89.8061	201.399	-17.0502	-28.8898	206.9	-19.1683	-54.1857	205.587	-19.4104	-76.5864	219.841	-26.1325	-18.8542	228.412	-26.5009	-36.1295	234.667	-22.3636	-51.2467	201.659	-12.2807	10.113	202.132	-8.80876	40.8605	177.152	-3.40057	26.2061	
81	0.675	155.281	-23.9353	35.4777	136.14	-29.9969	12.6682	127.05	-32.4529	-3.72937	117.111	-35.9901	-22.4594	160.652	-9.42497	-29.4277	157.387	-11.379	-52.3206	149.167	-15.2612	-74.9689	184.077	-11.5063	-38.1369	184.599	-12.1936	-61.6241	183.552	-16.2716	-89.3588	199.863	-17.3672	-32.2534	202.447	-18.6538	-55.4026	204.367	-20.8293	-73.239	222.968	-28.1161	-16.0851	224.7	-27.2009	-36.2896	235.913	-22.4588	-51.0941	204.754	-11.702	15.5788	200.345	-10.4827	39.6252	176.892	-4.30231	24.8154	
82	0.683333	151.319	-22.9232	34.7149	136.447	-30.9841	15.1007	125.53	-31.92	-4.50619	116.525	-35.5757	-23.1426	159.464	-10.3881	-31.8266	157.641	-12.4013	-55.8539	153.997	-16.9148	-76.0681	181.066	-11.7922	-36.8625	180.97	-12.055	-61.2761	187.843	-16.6744	-88.5173	202.7	-18.9296	-32.4572	206.769	-19.7336	-55.7137	206.126	-21.268	-72.006	218.277	-28.651	-15.4001	225.733	-27.473	-33.7902	238.872	-24.154	-48.5859	204.825	-12.9968	12.9149	205.794	-12.6378	39.6919	178.262	-5.96409	25.6929	
83	0.691667	153.319	-22.3529	35.844	140.525	-29.8744	13.0737	127.23	-32.9516	-3.28656	117.796	-34.5186	-18.9228	159.472	-9.09462	-30.4505	155.649	-12.0247	-54.9492	155.02	-17.1655	-78.1212	183.347	-11.2197	-39.8541	184.044	-13.1009	-58.7606	188.454	-16.8794	-86.3027	203.425	-18.4651	-30.5356	208.4	-20.3487	-54.514	205.645	-20.8041	-73.5611	221.439	-27.6012	-19.5785	229.306	-27.9665	-34.1325	238.927	-24.785	-50.5169	202.185	-12.1201	16.8935	203.164	-10.0103	40.7637	180.1	-3.55659	24.2011	
84	0.7	156.206	-22.0818	33.131	137.963	-29.2035	13.7448	130.016	-31.1666	-3.76257	117.023	-33.3498	-19.6248	159.921	-9.1009	-31.569	158.348	-11.8508	-54.1251	154.331	-15.6069	-77.536	187.192	-11.277	-35.5047	187.948	-13.9983	-60.6959	189.626	-17.4829	-88.4139	203.79	-17.3353	-31.3506	208.234	-19.1462	-54.0782	210.601	-20.9452	-73.2579	224.366	-28.2201	-17.8352	232.356	-29.1345	-34.5285	236.761	-24.2009	-47.8312	205.986	-13.2177	15.702	207.205	-11.4967	39.8095	180.014	-3.69491	26.5568	
85	0.708333	154.857	-21.6641	37.5326	138.041	-29.2414	16.2331	125.256	-29.3363	-4.68681	117.228	-32.6387	-21.093	160.952	-8.13252	-31.8906	160.901	-11.9117	-51.486	153.069	-14.7879	-77.679	183.817	-11.0939	-34.7861	187.799	-12.6074	-62.6538	187.636	-15.4612	-86.5681	205.974	-17.338	-29.8991	207.248	-18.9739	-49.638	208.791	-20.2165	-71.2164	221.298	-26.6718	-14.9945	232.102	-28.754	-33.129	236.478	-22.6294	-48.328	207.703	-10.5864	16.6002	205.236	-10.2605	38.5	179.194	-2.9588	26.8935	
86	0.716667	155.076	-21.0083	35.1444	141.372	-29.0063	17.4408	130.656	-30.2257	-3.51354	117.324	-31.8302	-19.672	163.993	-8.40814	-30.2077	160.21	-11.3576	-56.3712	155.896	-14.6632	-77.4304	184.802	-8.99153	-37.0672	185.978	-11.3611	-58.9916	187.619	-15.3807	-87.8714	208.191	-16.676	-29.8883	206.043	-17.2228	-50.8836	211.785	-20.0194	-71.503	225.901	-27.0255	-12.7743	230.877	-27.2819	-33.1666	240.511	-23.3136	-44.4044	207.789	-10.9577	13.7586	205.223	-9.13785	42.653	179.07	-2.31795	23.9118	
87	0.725	157.774	-20.1104	34.4333	140.347	-27.8896	16.5281	128.363	-28.1441	-6.66173	115.835	-31.9072	-18.23	165.333	-7.80249	-32.4337	158.463	-8.61612	-53.2816	156.11	-13.2586	-74.9743	189.365	-9.41816	-39.1045	187.118	-11.7549	-62.9943	191.455	-14.195	-84.4763	205.975	-16.689	-30.0482	210.077	-18.4318	-49.2488	211.463	-18.6501	-74.7215	223.173	-25.3248	-15.475	228.038	-26.8846	-29.8965	241.394	-22.9663	-46.9868	207.683	-11.2888	11.9326	205.389	-7.42769	43.2775	179.461	-0.642055	25.5637	
88	0.733333	156.336	-20.4683	34.2385	138.716	-27.7325	15.5527	131.915	-29.6311	-3.23747	117.099	-31.1185	-22.1685	166.003	-7.22798	-30.0101	161.421	-9.20266	-55.1258	156.786	-13.1791	-76.0479	186.47	-8.61674	-35.8481	185.691	-10.1841	-61.4612	188.641	-14.8959	-88.5881	209.635	-16.2662	-30.7654	208.738	-16.9985	-51.8895	211.451	-18.8018	-72.143	223.959	-25.6056	-16.2999	232.52	-27.4276	-29.6462	241.895	-23.5537	-46.982	208.794	-9.63664	13.4229	206.936	-7.98038	38.1627	181.191	-1.16303	25.1823	
89	0.741667	156.648	-20.4347	36.2736	141.904	-27.2804	15.1883	127.078	-28.4604	-2.69136	118.601	-32.4985	-17.6528	166.306	-7.2694	-33.2855	161.052	-8.97585	-51.4437	159.016	-13.4564	-78.3568	190.882	-9.36626	-34.611	189.968	-10.7334	-59.5228	188.742	-14.1055	-88.9849	210.603	-16.3255	-32.7184	209.544	-17.037	-53.4077	213.268	-18.6524	-74.4983	224.517	-24.7248	-15.9511	231.275	-26.2714	-32.9281	244.354	-22.72	-48.547	206.523	-8.43602	12.6303	208.346	-7.47907	40.1797	180.815	-2.6347	29.054	
90	0.75	157.876	-21.5333	36.1698	142.675	-27.7632	15.7123	131.336	-29.809	-2.63247	120.621	-31.0744	-22.2865	166.378	-8.07441	-32.1786	162.086	-10.239	-52.1831	155.988	-12.789	-74.2916	190.163	-9.3182	-34.7155	187.178	-10.3841	-59.6396	191.042	-14.6002	-87.654	207.83	-15.9802	-29.9303	211.774	-16.8701	-52.4413	211.043	-18.9048	-73.6101	228.142	-25.5782	-17.4675	232.083	-27.0061	-31.4117	239.526	-23.3536	-45.0006	209.416	-10.6878	12.9462	209.647	-8.02612	39.4873	181.102	-1.78932	28.5859	
91	0.758333	154.901	-19.9117	33.7622	143.431	-28.7979	15.6363	127.053	-30.3284	-3.53932	119.196	-32.8072	-18.7153	167.335	-7.10018	-33.8549	162.019	-9.62017	-56.7868	158.632	-14.2341	-75.2238	188.37	-8.817	-39.4441	188.247	-11.05	-63.6158	191.189	-15.1182	-86.0578	206.356	-14.9724	-32.2979	210.584	-16.6806	-51.8111	214.899	-19.6795	-70.0829	227.567	-26.7105	-13.2635	230.349	-25.1091	-32.8088	239.129	-21.8499	-48.4016	203.973	-10.3869	13.8452	209.382	-9.91831	41.5685	179.075	-0.157691	27.1719	
92	0.766667	154.609	-19.4468	34.8467	139.343	-27.2416	14.0057	128.316	-29.6093	-6.78056	121.134	-32.743	-22.0857	164.681	-7.65192	-28.4782	162.543	-9.93563	-55.3421	157.398	-14.1718	-76.7598	185.894	-7.94183	-39.5213	187.161	-10.2538	-58.9133	191.046	-14.8918	-86.3128	207.9	-15.9372	-26.968	212.3	-17.6136	-53.5144	214.882	-20.3358	-74.0837	225.418	-24.9336	-18.5197	232.985	-27.0005	-31.809	242.632	-22.4888	-45.5241	204.817	-9.244	15.368	207.216	-7.48635	43.1503	180.97	-2.99353	28.4262	
93	0.775	155.535	-19.9851	33.6777	143.677	-28.003	13.3676	128.705	-29.2491	-4.13317	121.725	-33.1711	-18.9295	165.766	-7.64916	-33.3193	162.262	-8.61087	-54.0808	158.236	-14.0125	-79.7776	190.374	-8.64281	-38.6432	190.097	-11.6104	-61.6631	189.691	-13.7911	-85.0856	209.767	-16.1753	-29.9941	212.332	-17.7828	-51.3975	211.783	-17.8235	-74.9851	226.895	-25.2116	-16.176	231.883	-25.939	-32.6028	239.351	-22.8423	-45.3502	208.003	-10.3568	13.539	205.145	-6.80865	38.6688	183.65	-2.92074	23.738	
94	0.783333	157.476	-19.9318	33.5164	141.66	-27.9092	16.4255	132.353	-28.917	-6.6493	119.38	-30.8011	-24.2216	162.476	-5.39341	-33.546	159.782	-7.93195	-56.1358	156.219	-11.4778	-76.0646	187.496	-8.28455	-34.9759	188.298	-9.39968	-62.9139	192.645	-13.7099	-87.8376	210.272	-16.756	-28.2939	211.14	-17.0189	-53.8965	210.729	-17.5991	-71.785	223.374	-23.7081	-16.1849	230.421	-24.9357	-31.6958	239.56	-23.2946	-45.5577	204.331	-7.62523	15.0026	203.877	-7.82694	41.0794	181.81	-0.667216	25.3869	
95	0.791667	160.334	-18.6032	32.9685	139.195	-26.2552	13.0114	128.202	-28.6324	-4.6867	122.091	-31.2528	-22.8863	162.901	-6.12442	-29.9632	163.042	-7.87514	-55.9329	156.779	-11.8836	-78.8386	186.351	-6.93008	-35.2186	186.911	-7.86935	-60.4519	193.615	-11.9081	-86.1524	208.738	-15.1774	-29.5844	209.127	-15.3878	-53.8595	214.743	-17.1875	-71.983	223.452	-23.8473	-16.29	235.314	-25.2243	-35.2329	242.357	-20.3513	-47.0735	203.629	-9.14996	13.1536	206.67	-5.89638	40.5104	184.097	-1.35182	25.2361	
96	0.8	159.852	-18.6624	33.49	141.054	-25.9579	11.2109	131.899	-28.216	-3.85426	120.589	-31.6275	-25.7835	165.291	-5.52713	-29.2822	164.422	-7.45971	-54.035	160.969	-11.9412	-75.2684	190.862	-7.44323	-36.5787	188.27	-8.27854	-65.2023	194.123	-12.7014	-87.9757	210.783	-15.5055	-30.4872	211.647	-15.6581	-56.2432	214.018	-16.9162	-76.7576	228.49	-23.4862	-18.8226	234.383	-25.7805	-29.9968	239.618	-20.1841	-47.4725	207.972	-7.98579	15.5729	205.576	-7.74676	39.3891	179.651	0.835157	26.9606	
97	0.808333	158.745	-19.6769	34.3198	142.755	-27.1893	14.8832	127.243	-29.4955	-4.75882	120.675	-32.7955	-21.9737	164.621	-5.86344	-32.4945	159.988	-6.66379	-53.9428	159.965	-10.8972	-75.8434	190.46	-8.23562	-40.934	191.793	-9.5261	-63.1425	192.879	-12.4664	-91.0783	207.47	-14.3068	-30.2986	210.936	-15.183	-53.043	214.219	-17.4445	-75.9354	225.2	-24.4349	-15.5235	232.516	-25.5864	-31.7219	243.688	-21.7424	-49.2148	208.325	-9.24835	13.9012	209.595	-6.2573	40.7959	179.011	-1.16733	23.3286	
98	0.816667	159.837	-20.1669	32.5324	142.204	-27.7021	12.2489	133.301	-30.1171	-7.74123	119.068	-33.9932	-21.643	163.084	-4.91726	-35.4411	160.556	-7.36064	-53.5834	157.739	-11.5784	-75.9338	192.215	-8.91232	-41.1491	190.245	-9.37193	-62.1876	190.5	-12.2844	-89.6419	208.257	-15.0371	-31.6571	213.926	-16.681	-55.4514	215.729	-17.6015	-76.4117	226.011	-24.643	-17.0751	231.884	-24.9056	-31.7478	243.291	-20.4822	-47.8708	205.396	-8.01946	13.6659	208.641	-8.37821	35.2548	182.949	-2.41989	25.4438	
